<svg xmlns="http://www.w3.org/2000/svg" viewBox="0 0 700 700" width="700" height="700" role="img" aria-label="Cookware set"><defs><linearGradient id="g1883a9" x1="0" y1="0" x2="1" y2="1"><stop offset="0" stop-color="#7f1d1d"/><stop offset="1" stop-color="#f87171"/></linearGradient></defs><rect width="700" height="700" fill="url(#g1883a9)"/><circle cx="546" cy="154" r="224" fill="#ffffff" opacity="0.10"/><g transform="translate(350 350) scale(0.76) translate(-350 -350)"><path d="M 170 330 h 300 a 24 24 0 0 1 24 24 v 40 a 24 24 0 0 1 -24 24 h -300 a 24 24 0 0 1 -24 -24 v -40 a 24 24 0 0 1 24 -24 z" fill="#ffffff"/><rect x="130" y="392" width="60" height="18" rx="9" fill="#ffffff"/><rect x="450" y="392" width="60" height="18" rx="9" fill="#ffffff"/><rect x="220" y="300" width="200" height="26" rx="13" fill="#ffffff" opacity="0.85"/><circle cx="320" cy="500" r="52" fill="#ffffff" opacity="0.9"/><circle cx="320" cy="500" r="30" fill="#0b2b3c" opacity="0.25"/></g></svg>